<?xml version="1.0" encoding="UTF-8" standalone="no"?>
<!DOCTYPE svg PUBLIC "-//W3C//DTD SVG 1.1//EN" "http://www.w3.org/Graphics/SVG/1.1/DTD/svg11.dtd">
<svg xmlns="http://www.w3.org/2000/svg" version="1.1" viewBox="0 0 686 143">
<g stroke-width="2.00" fill="none" stroke-linecap="butt">
<path stroke="#6a885e" vector-effect="non-scaling-stroke" d="
  M 477.04 105.75
  Q 477.02 105.00 476.46 104.50"
/>
<path stroke="#567249" vector-effect="non-scaling-stroke" d="
  M 476.46 104.50
  Q 475.92 98.90 476.56 93.31
  Q 476.86 90.70 479.00 89.29"
/>
<path stroke="#6a885e" vector-effect="non-scaling-stroke" d="
  M 479.00 89.29
  L 482.79 87.75"
/>
<path stroke="#517849" vector-effect="non-scaling-stroke" d="
  M 482.79 87.75
  L 493.96 83.62
  A 1.59 1.15 -2.3 0 0 494.72 83.02
  Q 495.34 81.92 493.93 81.77
  Q 493.40 81.71 492.58 81.93
  Q 485.80 83.73 478.79 84.25"
/>
<path stroke="#567249" vector-effect="non-scaling-stroke" d="
  M 478.79 84.25
  Q 477.50 82.23 477.96 79.75"
/>
<path stroke="#678653" vector-effect="non-scaling-stroke" d="
  M 477.96 79.75
  Q 478.18 78.62 477.44 77.50"
/>
<path stroke="#5d8250" vector-effect="non-scaling-stroke" d="
  M 477.44 77.50
  Q 480.15 69.64 486.29 64.50"
/>
<path stroke="#4b7648" vector-effect="non-scaling-stroke" d="
  M 486.29 64.50
  L 493.69 58.90
  Q 494.07 58.62 494.55 58.46
  L 499.97 56.63
  Q 502.15 55.90 503.49 56.00
  Q 506.37 56.22 508.86 54.96
  Q 509.66 54.55 510.05 53.93
  Q 511.01 52.42 508.50 52.42
  Q 504.70 52.43 500.99 53.05
  Q 497.29 53.66 493.96 55.53
  Q 488.69 58.50 484.25 62.71"
/>
<path stroke="#5d8250" vector-effect="non-scaling-stroke" d="
  M 484.25 62.71
  L 483.25 62.83"
/>
<path stroke="#517849" vector-effect="non-scaling-stroke" d="
  M 483.25 62.83
  Q 482.61 55.40 483.31 53.56
  Q 485.08 48.93 485.77 40.85
  A 1.48 1.48 -8.5 0 1 486.69 39.61
  Q 488.18 39.02 489.00 37.79"
/>
<path stroke="#5d8250" vector-effect="non-scaling-stroke" d="
  M 489.00 37.79
  Q 490.07 37.56 490.79 36.75"
/>
<path stroke="#436f41" vector-effect="non-scaling-stroke" d="
  M 490.79 36.75
  Q 495.55 33.16 499.30 28.53
  Q 500.24 27.37 500.41 26.39
  Q 500.79 24.19 498.19 24.38
  A 0.80 0.71 -82.5 0 0 497.55 24.93
  Q 496.21 29.25 492.06 31.31
  Q 491.07 31.80 489.75 33.71"
/>
<path stroke="#5d8250" vector-effect="non-scaling-stroke" d="
  M 489.75 33.71
  L 488.50 35.04"
/>
<path stroke="#517849" vector-effect="non-scaling-stroke" d="
  M 488.50 35.04
  L 484.45 38.23
  A 2.93 2.66 69.1 0 0 483.45 40.79
  Q 483.84 44.26 482.91 47.10
  Q 480.19 55.46 480.29 64.25"
/>
<path stroke="#5d8250" vector-effect="non-scaling-stroke" d="
  M 480.29 64.25
  Q 479.06 68.80 475.47 72.15"
/>
<path stroke="#678653" vector-effect="non-scaling-stroke" d="
  M 475.47 72.15
  Q 473.56 68.90 473.21 65.25"
/>
<path stroke="#517849" vector-effect="non-scaling-stroke" d="
  M 473.21 65.25
  L 469.75 47.23
  Q 469.43 45.59 468.53 44.39
  Q 465.46 40.31 462.94 35.81
  Q 461.87 33.92 460.34 35.39
  A 0.70 0.65 54.7 0 0 460.23 36.19
  Q 461.94 39.46 463.93 42.57
  Q 466.22 46.15 467.03 49.00
  Q 468.27 53.38 468.79 57.94
  Q 469.41 63.41 470.71 68.75"
/>
<path stroke="#678653" vector-effect="non-scaling-stroke" d="
  M 470.71 68.75
  L 471.29 71.25"
/>
<path stroke="#567249" vector-effect="non-scaling-stroke" d="
  M 471.29 71.25
  Q 471.54 74.07 472.94 76.54
  Q 474.74 79.72 473.75 83.25
  Q 470.96 85.66 469.69 89.18
  A 1.37 1.31 29.8 0 1 467.57 89.70
  L 460.50 83.96"
/>
<path stroke="#3c613e" vector-effect="non-scaling-stroke" d="
  M 460.50 83.96
  Q 457.12 80.73 454.31 78.94
  Q 452.13 77.55 451.80 75.20
  A 1.20 0.58 -89.8 0 0 451.43 74.43
  Q 450.97 74.12 451.00 75.25
  Q 451.03 76.37 452.24 79.83
  Q 452.43 80.39 453.93 82.73
  Q 455.50 85.17 452.47 87.23
  Q 450.31 88.68 448.42 90.47
  A 1.04 0.90 -27.8 0 0 448.09 91.32
  Q 448.29 92.82 450.00 92.50
  Q 452.76 91.99 455.94 89.69
  Q 458.24 88.03 460.50 88.21"
/>
<path stroke="#567249" vector-effect="non-scaling-stroke" d="
  M 460.50 88.21
  Q 462.48 89.52 464.08 91.25
  Q 464.84 92.05 464.93 92.98
  Q 465.03 93.99 464.79 95.00"
/>
<path stroke="#678653" vector-effect="non-scaling-stroke" d="
  M 464.79 95.00
  L 464.71 102.00"
/>
<path stroke="#567249" vector-effect="non-scaling-stroke" d="
  M 464.71 102.00
  Q 463.97 102.11 464.25 103.00
  Q 464.70 104.39 463.71 105.25"
/>
<path stroke="#8b8c61" vector-effect="non-scaling-stroke" d="
  M 486.29 64.50
  Q 485.51 63.34 484.25 62.71"
/>
<path stroke="#928e62" vector-effect="non-scaling-stroke" d="
  M 489.00 37.79
  Q 487.05 36.69 488.50 35.04"
/>
<path stroke="#928e62" vector-effect="non-scaling-stroke" d="
  M 483.25 62.83
  L 480.29 64.25"
/>
<path stroke="#9c9265" vector-effect="non-scaling-stroke" d="
  M 473.21 65.25
  Q 470.66 66.05 470.71 68.75"
/>
<path stroke="#8b7e5b" vector-effect="non-scaling-stroke" d="
  M 478.79 84.25
  Q 478.35 84.86 478.79 85.50"
/>
<path stroke="#a48d70" vector-effect="non-scaling-stroke" d="
  M 478.79 85.50
  L 479.00 89.29"
/>
<path stroke="#a48d70" vector-effect="non-scaling-stroke" d="
  M 476.46 104.50
  Q 473.89 105.25 474.50 107.50
  Q 476.27 114.00 477.54 107.75"
/>
<path stroke="#886f52" vector-effect="non-scaling-stroke" d="
  M 480.96 113.75
  Q 477.09 114.49 478.00 118.52
  A 1.46 1.46 77.9 0 1 476.86 120.28
  Q 474.41 120.76 472.98 119.10
  Q 472.08 118.04 471.60 117.83
  Q 469.88 117.11 469.92 119.68
  A 0.61 0.53 86.8 0 1 469.46 120.28
  Q 467.69 120.52 466.69 119.00
  A 0.99 0.76 68.3 0 0 465.93 118.55
  Q 463.91 118.67 463.94 121.25
  Q 463.99 125.51 461.46 122.50"
/>
<path stroke="#a18b65" vector-effect="non-scaling-stroke" d="
  M 464.71 102.00
  L 465.79 105.91
  A 0.55 0.54 60.2 0 0 466.70 106.17
  Q 468.11 104.76 467.75 102.54"
/>
<path stroke="#7a5e4b" vector-effect="non-scaling-stroke" d="
  M 467.75 102.54
  Q 469.57 100.22 469.93 97.29
  Q 470.04 96.42 470.40 95.83
  Q 470.92 95.01 471.30 94.55
  A 0.89 0.88 42.2 0 0 471.24 93.36
  Q 468.90 91.03 468.57 93.17
  Q 468.33 94.65 467.07 94.63
  A 0.79 0.61 9.3 0 0 466.35 95.02
  L 465.96 96.00"
/>
<path stroke="#a18b65" vector-effect="non-scaling-stroke" d="
  M 465.96 96.00
  Q 464.99 95.91 464.79 95.00"
/>
<path stroke="#766750" vector-effect="non-scaling-stroke" d="
  M 460.50 88.21
  Q 459.76 86.04 460.50 83.96"
/>
<path stroke="#af946e" vector-effect="non-scaling-stroke" d="
  M 473.75 83.25
  Q 474.05 85.08 473.06 86.56
  Q 471.52 88.88 473.94 89.56
  Q 476.09 90.17 475.65 87.05
  Q 475.46 85.66 475.32 84.27
  Q 475.18 82.87 473.75 83.25"
/>
<path stroke="#83855a" vector-effect="non-scaling-stroke" d="
  M 490.79 36.75
  Q 490.95 34.93 489.75 33.71"
/>
<path stroke="#9f9470" vector-effect="non-scaling-stroke" d="
  M 482.79 87.75
  Q 482.57 86.09 481.50 85.25
  Q 479.96 84.04 478.79 85.50"
/>
<path stroke="#a18b65" vector-effect="non-scaling-stroke" d="
  M 477.96 79.75
  Q 474.62 79.06 474.00 76.25
  Q 473.23 72.73 471.29 71.25"
/>
<path stroke="#a89b6c" vector-effect="non-scaling-stroke" d="
  M 477.44 77.50
  Q 477.06 74.53 475.47 72.15"
/>
<path stroke="#725642" vector-effect="non-scaling-stroke" d="
  M 486.00 118.54
  Q 486.60 119.26 486.23 119.67
  A 1.59 0.72 -36.4 0 0 485.80 120.44
  Q 485.62 121.82 483.54 121.09
  A 1.23 1.18 -77.9 0 0 481.97 122.16
  L 481.50 127.21"
/>
<path stroke="#886f52" vector-effect="non-scaling-stroke" d="
  M 447.75 129.71
  Q 448.49 127.52 446.75 126.71"
/>
<path stroke="#8b7254" vector-effect="non-scaling-stroke" d="
  M 467.75 102.54
  Q 465.45 99.64 465.96 96.00"
/>
<path stroke="#765a49" vector-effect="non-scaling-stroke" d="
  M 488.54 120.75
  Q 488.22 122.92 486.78 124.48
  Q 486.15 125.16 486.04 125.70
  Q 485.89 126.44 486.00 127.21"
/>
<path stroke="#72634e" vector-effect="non-scaling-stroke" d="
  M 508.50 126.29
  Q 510.17 127.45 509.50 129.71"
/>
<path stroke="#8f6a4e" vector-effect="non-scaling-stroke" d="
  M 56.94 99.13
  Q 59.54 100.86 62.70 100.78
  Q 66.71 100.68 67.27 100.88
  Q 70.20 101.92 70.25 105.71"
/>
<path stroke="#9f8266" vector-effect="non-scaling-stroke" d="
  M 46.00 105.71
  Q 45.92 104.28 44.21 104.25"
/>
<path stroke="#967353" vector-effect="non-scaling-stroke" d="
  M 44.21 104.25
  Q 46.14 103.38 48.25 103.55
  Q 51.61 103.82 54.98 103.76
  Q 55.07 103.76 56.03 103.80
  Q 57.90 103.89 56.94 102.06
  Q 55.99 100.28 54.56 100.44
  L 45.31 101.50
  A 0.93 0.80 -78.6 0 0 44.63 102.03
  Q 43.96 103.52 42.25 103.71"
/>
<path stroke="#856047" vector-effect="non-scaling-stroke" d="
  M 42.25 103.71
  Q 43.21 103.29 43.59 102.47
  A 0.38 0.34 13.4 0 0 43.25 101.98
  Q 41.05 101.84 39.19 100.56
  Q 38.55 100.13 37.29 100.75"
/>
<path stroke="#b09572" vector-effect="non-scaling-stroke" d="
  M 44.21 104.25
  L 42.00 103.96"
/>
<path stroke="#a07d59" vector-effect="non-scaling-stroke" d="
  M 135.71 99.03
  Q 140.56 101.78 136.44 102.26
  Q 136.11 102.30 135.47 102.12
  Q 134.04 101.71 132.63 103.56
  Q 131.97 104.44 133.03 104.16
  Q 135.58 103.49 134.75 105.71"
/>
<path stroke="#856246" vector-effect="non-scaling-stroke" d="
  M 111.25 105.71
  Q 111.19 103.28 109.35 102.55
  Q 108.34 102.16 106.21 102.81
  Q 102.54 103.93 98.67 103.15
  Q 97.85 102.98 97.33 103.14
  Q 95.64 103.64 98.21 105.04
  Q 98.99 105.46 100.32 105.51
  L 105.75 105.71"
/>
<path stroke="#a88c6d" vector-effect="non-scaling-stroke" d="
  M 83.00 105.71
  Q 82.89 103.58 84.96 103.89
  Q 85.71 104.00 86.05 103.96
  Q 87.54 103.80 86.90 103.10
  Q 86.59 102.75 85.98 102.64
  Q 81.60 101.81 79.41 105.52"
/>
<path stroke="#967353" vector-effect="non-scaling-stroke" d="
  M 42.25 103.71
  Q 42.03 103.75 42.00 103.96"
/>
<path stroke="#9f8266" vector-effect="non-scaling-stroke" d="
  M 42.00 103.96
  Q 40.18 104.14 38.96 105.50"
/>
<path stroke="#977556" vector-effect="non-scaling-stroke" d="
  M 162.25 99.04
  Q 163.16 100.81 161.29 101.43
  A 0.46 0.40 71.4 0 0 161.06 101.99
  L 162.27 105.73"
/>
<path stroke="#a0846a" vector-effect="non-scaling-stroke" d="
  M 221.96 99.08
  Q 225.72 101.92 229.86 99.20"
/>
<path stroke="#977556" vector-effect="non-scaling-stroke" d="
  M 232.75 99.04
  Q 233.22 101.76 235.28 102.78
  Q 235.71 102.99 238.30 103.07
  Q 240.62 103.13 241.25 105.71"
/>
<path stroke="#a0846a" vector-effect="non-scaling-stroke" d="
  M 222.09 105.65
  Q 221.25 103.07 218.19 104.44
  Q 217.20 104.88 217.75 105.71"
/>
<path stroke="#bb9b6f" vector-effect="non-scaling-stroke" d="
  M 273.25 99.04
  Q 273.56 104.31 279.00 104.20
  Q 281.04 104.16 280.50 105.71"
/>
<path stroke="#c0a877" vector-effect="non-scaling-stroke" d="
  M 277.25 99.04
  Q 281.55 101.64 286.07 102.63"
/>
<path stroke="#aa8864" vector-effect="non-scaling-stroke" d="
  M 286.07 102.63
  Q 286.73 103.15 286.71 103.53
  A 0.85 0.39 -3.2 0 1 285.93 103.94
  Q 284.31 104.05 285.00 105.71"
/>
<path stroke="#9f8266" vector-effect="non-scaling-stroke" d="
  M 314.50 99.04
  Q 313.80 99.92 314.25 100.96"
/>
<path stroke="#856047" vector-effect="non-scaling-stroke" d="
  M 314.25 100.96
  Q 313.30 101.79 312.84 100.13"
/>
<path stroke="#a47f5e" vector-effect="non-scaling-stroke" d="
  M 312.84 100.13
  Q 308.44 100.27 304.32 101.57
  Q 303.67 101.77 303.35 102.18
  Q 302.40 103.39 304.88 103.14
  Q 305.81 103.05 306.74 102.95
  Q 310.15 102.57 307.25 104.50
  Q 304.99 106.00 302.50 104.75
  Q 298.99 102.98 296.42 105.62"
/>
<path stroke="#9c805b" vector-effect="non-scaling-stroke" d="
  M 292.29 99.09
  L 286.07 102.63"
/>
<path stroke="#9f8266" vector-effect="non-scaling-stroke" d="
  M 325.75 99.04
  Q 326.41 101.04 328.49 101.57
  Q 329.82 101.92 328.59 102.55
  Q 323.06 105.38 317.81 102.19
  Q 316.82 101.58 314.25 100.96"
/>
<path stroke="#9f8266" vector-effect="non-scaling-stroke" d="
  M 342.75 99.04
  Q 344.84 101.87 348.00 99.96"
/>
<path stroke="#7b5840" vector-effect="non-scaling-stroke" d="
  M 348.00 99.96
  Q 347.82 103.01 351.25 102.04"
/>
<path stroke="#a47f5e" vector-effect="non-scaling-stroke" d="
  M 351.25 102.04
  Q 349.27 102.27 347.29 102.48
  Q 345.64 102.66 343.36 102.27
  Q 340.56 101.78 336.75 101.75
  Q 334.19 101.73 332.50 102.57
  A 0.67 0.55 -24.3 0 0 332.14 103.31
  Q 332.30 103.70 332.75 103.75
  Q 335.11 104.01 338.26 103.90
  Q 340.82 103.82 343.74 104.01
  Q 348.12 104.29 352.50 103.79"
/>
<path stroke="#7b5840" vector-effect="non-scaling-stroke" d="
  M 352.50 103.79
  Q 353.23 105.04 354.75 104.79"
/>
<path stroke="#86624b" vector-effect="non-scaling-stroke" d="
  M 354.75 104.79
  Q 353.26 105.89 351.25 105.71"
/>
<path stroke="#9f8266" vector-effect="non-scaling-stroke" d="
  M 332.10 105.59
  Q 330.69 102.47 327.50 104.30
  A 0.70 0.55 -26.3 0 0 327.14 105.05
  Q 327.29 105.45 327.75 105.71"
/>
<path stroke="#a47f5e" vector-effect="non-scaling-stroke" d="
  M 309.75 105.71
  Q 309.43 104.46 310.27 103.95
  Q 311.09 103.46 311.14 103.41
  Q 312.27 102.30 312.84 100.13"
/>
<path stroke="#95795f" vector-effect="non-scaling-stroke" d="
  M 357.50 99.04
  Q 356.42 99.00 356.35 99.57
  A 0.71 0.45 10.9 0 0 356.93 100.12
  L 360.00 100.79"
/>
<path stroke="#7c5a43" vector-effect="non-scaling-stroke" d="
  M 360.00 100.79
  Q 364.08 102.04 360.87 104.17
  Q 360.61 104.34 359.95 104.39
  L 354.75 104.79"
/>
<path stroke="#9a7657" vector-effect="non-scaling-stroke" d="
  M 352.50 103.79
  Q 355.82 101.50 351.25 102.04"
/>
<path stroke="#b7997c" vector-effect="non-scaling-stroke" d="
  M 388.71 100.75
  L 385.75 101.29"
/>
<path stroke="#a58162" vector-effect="non-scaling-stroke" d="
  M 385.75 101.29
  Q 382.69 100.16 380.00 100.25
  Q 377.40 100.34 376.22 102.54
  A 0.34 0.33 16.0 0 0 376.50 103.03
  L 385.69 103.77
  A 0.58 0.53 89.9 0 1 386.19 104.31
  L 386.25 105.71"
/>
<path stroke="#95795f" vector-effect="non-scaling-stroke" d="
  M 347.50 99.04
  Q 348.12 99.29 348.00 99.96"
/>
<path stroke="#a0846a" vector-effect="non-scaling-stroke" d="
  M 363.25 99.04
  Q 363.39 100.43 361.81 100.06
  Q 360.91 99.86 360.00 100.79"
/>
<path stroke="#d5b58f" vector-effect="non-scaling-stroke" d="
  M 385.75 101.29
  Q 386.29 103.78 388.71 103.00"
/>
<path stroke="#185128" vector-effect="non-scaling-stroke" d="
  M 377.75 117.54
  Q 377.58 118.05 377.45 118.13"
/>
<path stroke="#bb9b6f" vector-effect="non-scaling-stroke" d="
  M 251.56 101.69
  Q 248.42 100.89 244.05 101.94
  Q 243.49 102.08 243.19 102.41
  Q 242.43 103.23 243.69 103.56
  Q 246.65 104.34 252.19 103.97
  A 0.80 0.71 6.1 0 0 252.89 103.47
  Q 253.32 102.13 251.56 101.69"
/>
<path stroke="#bb9b6f" vector-effect="non-scaling-stroke" d="
  M 266.06 102.19
  Q 261.57 101.10 257.75 102.25
  Q 256.64 102.58 256.83 103.25
  A 0.78 0.60 -7.1 0 0 257.57 103.69
  L 266.19 103.46
  A 0.62 0.51 -0.1 0 0 266.80 102.96
  Q 266.82 102.37 266.06 102.19"
/>
</g>
<path fill="#1c6c37" d="
  M 477.04 105.75
  Q 477.02 105.00 476.46 104.50
  Q 475.92 98.90 476.56 93.31
  Q 476.86 90.70 479.00 89.29
  L 482.79 87.75
  L 493.96 83.62
  A 1.59 1.15 -2.3 0 0 494.72 83.02
  Q 495.34 81.92 493.93 81.77
  Q 493.40 81.71 492.58 81.93
  Q 485.80 83.73 478.79 84.25
  Q 477.50 82.23 477.96 79.75
  Q 478.18 78.62 477.44 77.50
  Q 480.15 69.64 486.29 64.50
  L 493.69 58.90
  Q 494.07 58.62 494.55 58.46
  L 499.97 56.63
  Q 502.15 55.90 503.49 56.00
  Q 506.37 56.22 508.86 54.96
  Q 509.66 54.55 510.05 53.93
  Q 511.01 52.42 508.50 52.42
  Q 504.70 52.43 500.99 53.05
  Q 497.29 53.66 493.96 55.53
  Q 488.69 58.50 484.25 62.71
  L 483.25 62.83
  Q 482.61 55.40 483.31 53.56
  Q 485.08 48.93 485.77 40.85
  A 1.48 1.48 -8.5 0 1 486.69 39.61
  Q 488.18 39.02 489.00 37.79
  Q 490.07 37.56 490.79 36.75
  Q 495.55 33.16 499.30 28.53
  Q 500.24 27.37 500.41 26.39
  Q 500.79 24.19 498.19 24.38
  A 0.80 0.71 -82.5 0 0 497.55 24.93
  Q 496.21 29.25 492.06 31.31
  Q 491.07 31.80 489.75 33.71
  L 488.50 35.04
  L 484.45 38.23
  A 2.93 2.66 69.1 0 0 483.45 40.79
  Q 483.84 44.26 482.91 47.10
  Q 480.19 55.46 480.29 64.25
  Q 479.06 68.80 475.47 72.15
  Q 473.56 68.90 473.21 65.25
  L 469.75 47.23
  Q 469.43 45.59 468.53 44.39
  Q 465.46 40.31 462.94 35.81
  Q 461.87 33.92 460.34 35.39
  A 0.70 0.65 54.7 0 0 460.23 36.19
  Q 461.94 39.46 463.93 42.57
  Q 466.22 46.15 467.03 49.00
  Q 468.27 53.38 468.79 57.94
  Q 469.41 63.41 470.71 68.75
  L 471.29 71.25
  Q 471.54 74.07 472.94 76.54
  Q 474.74 79.72 473.75 83.25
  Q 470.96 85.66 469.69 89.18
  A 1.37 1.31 29.8 0 1 467.57 89.70
  L 460.50 83.96
  Q 457.12 80.73 454.31 78.94
  Q 452.13 77.55 451.80 75.20
  A 1.20 0.58 -89.8 0 0 451.43 74.43
  Q 450.97 74.12 451.00 75.25
  Q 451.03 76.37 452.24 79.83
  Q 452.43 80.39 453.93 82.73
  Q 455.50 85.17 452.47 87.23
  Q 450.31 88.68 448.42 90.47
  A 1.04 0.90 -27.8 0 0 448.09 91.32
  Q 448.29 92.82 450.00 92.50
  Q 452.76 91.99 455.94 89.69
  Q 458.24 88.03 460.50 88.21
  Q 462.48 89.52 464.08 91.25
  Q 464.84 92.05 464.93 92.98
  Q 465.03 93.99 464.79 95.00
  L 464.71 102.00
  Q 463.97 102.11 464.25 103.00
  Q 464.70 104.39 463.71 105.25
  Q 455.37 104.83 447.03 105.00
  Q 445.15 105.04 442.25 105.93
  Q 439.81 106.69 437.36 106.74
  Q 435.50 106.78 434.64 108.42
  Q 433.06 111.40 430.05 112.31
  A 0.68 0.61 65.6 0 1 429.33 111.99
  Q 428.11 109.94 425.15 110.57
  A 1.13 1.12 -6.9 0 1 423.79 109.51
  Q 423.73 107.42 423.73 105.01
  Q 423.74 103.57 424.43 100.60
  Q 424.99 98.24 424.75 95.75
  Q 424.61 94.37 424.91 93.07
  Q 425.34 91.21 425.42 90.49
  Q 426.12 83.88 429.89 79.70
  Q 431.31 78.13 430.87 76.06
  Q 430.04 72.19 432.09 71.43
  A 3.60 3.59 4.0 0 0 433.98 69.79
  Q 436.24 65.66 438.95 65.02
  Q 439.49 64.90 439.82 64.61
  Q 447.81 57.70 454.64 49.74
  Q 455.97 48.19 454.51 46.76
  Q 451.87 44.18 448.25 43.50
  Q 444.07 42.72 445.25 40.50
  Q 446.17 38.77 446.42 36.88
  Q 446.51 36.17 445.88 33.23
  Q 445.33 30.67 446.89 28.35
  A 1.27 1.22 -33.1 0 0 447.10 27.44
  Q 446.62 24.37 447.92 21.84
  Q 449.30 19.17 452.28 18.94
  Q 454.55 18.76 458.07 19.19
  Q 458.45 19.24 458.82 19.34
  Q 461.52 20.12 462.93 18.43
  A 0.86 0.86 -42.5 0 1 464.29 18.49
  Q 467.76 23.50 471.45 23.02
  A 1.13 0.95 -74.7 0 0 472.19 22.51
  Q 474.48 18.75 478.70 18.62
  Q 481.61 18.53 482.75 18.22
  Q 484.60 17.72 486.72 17.13
  A 0.77 0.76 65.6 0 1 487.58 17.46
  Q 488.50 18.93 490.25 18.87
  Q 493.13 18.76 496.00 18.75
  A 1.27 1.18 21.1 0 0 496.87 18.40
  L 503.09 12.29
  A 1.36 0.76 -55.7 0 1 503.93 11.87
  Q 504.59 11.87 504.99 12.48
  Q 505.19 12.78 505.28 13.58
  Q 505.49 15.42 507.20 15.94
  A 0.65 0.63 -81.1 0 1 507.64 16.57
  Q 507.62 17.67 508.35 18.38
  Q 509.36 19.35 509.38 19.38
  Q 512.93 24.07 514.50 31.50
  Q 514.95 33.61 516.71 35.88
  Q 519.06 38.89 519.51 39.80
  Q 521.55 43.90 521.60 48.56
  Q 521.62 50.27 521.88 51.80
  Q 522.15 53.35 522.27 55.06
  Q 522.41 56.99 520.76 58.00
  Q 519.35 58.85 518.88 62.05
  Q 518.56 64.15 516.65 65.08
  Q 514.61 66.06 513.59 68.18
  Q 512.68 70.08 512.65 70.13
  Q 510.35 74.00 506.94 76.99
  A 1.79 1.69 79.5 0 0 506.42 77.79
  Q 505.11 82.00 501.66 84.69
  A 1.07 0.97 -20.8 0 0 501.25 85.49
  L 501.25 104.05
  A 0.95 0.95 -89.5 0 1 500.30 105.00
  Q 489.50 105.00 478.75 105.04
  Q 477.72 105.04 477.04 105.75
  Z"
/>
<path fill="#185128" d="
  M 281.73 79.56
  Q 282.32 78.52 283.44 76.94
  Q 289.26 68.73 295.48 57.81
  Q 302.16 46.11 305.61 40.59
  Q 312.92 28.87 320.17 17.11
  A 1.01 0.89 -72.1 0 1 320.94 16.65
  L 329.93 16.54
  A 1.39 1.23 62.5 0 1 330.82 16.88
  Q 332.39 18.25 333.18 20.12
  Q 334.35 22.90 334.84 23.63
  Q 344.03 37.46 352.63 51.66
  Q 353.51 53.11 357.09 58.22
  Q 359.18 61.20 361.25 65.00
  Q 366.93 75.43 374.38 85.36
  Q 375.61 87.00 377.67 87.00
  Q 379.62 87.00 382.49 86.85
  Q 387.52 86.58 386.33 91.20
  A 0.68 0.66 7.2 0 1 385.68 91.69
  L 336.11 91.75
  A 0.82 0.82 88.1 0 1 335.29 90.98
  Q 335.14 89.06 336.10 88.14
  Q 336.77 87.50 338.59 87.50
  Q 341.09 87.50 343.60 87.50
  Q 346.26 87.50 347.24 86.79
  Q 348.66 85.77 348.10 83.63
  Q 347.84 82.61 346.71 80.91
  Q 343.08 75.40 339.70 69.75
  A 0.84 0.84 73.0 0 0 338.93 69.34
  Q 332.40 69.73 329.00 69.50
  Q 314.50 68.52 298.31 69.61
  A 2.74 2.73 -74.8 0 0 296.23 70.81
  Q 292.85 75.78 289.81 83.54
  Q 288.78 86.19 291.53 86.92
  Q 295.24 87.91 300.47 87.28
  Q 303.40 86.93 302.89 89.26
  Q 302.78 89.72 302.93 90.22
  Q 303.36 91.75 301.25 91.75
  Q 284.25 91.75 266.81 91.75
  A 0.53 0.53 85.5 0 1 266.29 91.30
  Q 265.60 86.72 270.50 87.47
  Q 276.17 88.34 278.94 83.69
  Q 279.65 82.48 280.35 81.61
  Q 281.07 80.72 281.73 79.56
  Z
  M 317.09 37.63
  Q 308.84 49.62 302.38 60.70
  Q 300.74 63.50 303.98 63.50
  L 333.19 63.50
  Q 335.86 63.50 334.60 61.15
  Q 327.73 48.36 319.69 37.58
  Q 318.36 35.78 317.09 37.63
  Z"
/>
<path fill="#185128" d="
  M 52.43 86.49
  Q 53.81 83.83 53.50 80.50
  Q 53.24 77.66 53.66 74.50
  Q 54.20 70.46 54.22 68.57
  Q 54.42 49.08 54.03 29.60
  Q 54.01 28.43 53.55 26.48
  Q 53.28 25.32 52.91 23.37
  A 1.16 0.99 86.7 0 0 52.03 22.45
  L 41.92 21.19
  Q 39.53 20.89 39.17 18.77
  Q 38.78 16.51 41.59 16.88
  Q 42.85 17.05 42.92 17.06
  Q 53.77 18.01 64.64 17.59
  Q 64.74 17.59 68.78 16.93
  Q 72.11 16.38 74.51 18.79
  Q 75.90 20.20 75.95 20.24
  Q 78.21 22.25 80.54 24.19
  Q 103.85 43.68 127.64 62.57
  Q 130.22 64.62 133.19 66.53
  Q 136.21 68.47 138.90 70.25
  Q 141.25 71.80 141.25 68.99
  Q 141.25 49.74 141.25 30.95
  Q 141.25 30.90 140.88 28.11
  Q 140.71 26.86 140.90 25.03
  Q 141.09 23.04 139.16 22.51
  Q 135.12 21.40 130.25 21.70
  Q 125.94 21.97 126.92 18.05
  A 0.67 0.63 6.7 0 1 127.56 17.57
  L 163.31 17.45
  A 1.13 0.89 -14.8 0 1 164.14 17.81
  Q 165.16 19.11 164.62 20.72
  A 0.74 0.66 8.0 0 1 163.93 21.18
  Q 161.98 21.22 156.00 21.75
  Q 151.96 22.11 151.02 24.94
  Q 150.75 25.74 150.75 30.09
  Q 150.75 60.80 150.75 91.68
  A 1.33 1.33 1.0 0 1 149.37 93.01
  Q 146.55 92.91 143.93 92.67
  Q 143.84 92.66 140.57 92.63
  Q 137.86 92.60 135.81 90.94
  Q 126.93 83.73 120.07 78.93
  Q 111.70 73.06 100.56 63.44
  Q 97.09 60.44 91.93 56.85
  Q 87.38 53.67 83.43 50.16
  Q 78.25 45.56 72.81 41.27
  Q 72.73 41.21 69.30 38.11
  Q 67.16 36.17 64.42 35.06
  A 0.89 0.89 -78.5 0 0 63.19 35.88
  Q 63.04 59.10 63.69 82.49
  Q 63.77 85.10 64.81 86.20
  Q 65.86 87.32 67.54 87.51
  Q 70.23 87.80 70.42 87.84
  Q 73.26 88.43 76.18 88.33
  A 0.70 0.63 -8.2 0 1 76.85 88.78
  Q 77.79 91.75 74.25 91.75
  Q 58.71 91.75 43.17 91.75
  Q 43.03 91.75 41.84 91.83
  Q 39.47 92.00 39.32 89.81
  A 1.18 1.09 -26.6 0 1 39.65 88.93
  Q 41.58 86.93 45.00 87.50
  Q 48.01 88.01 51.71 87.06
  A 1.10 1.10 -83.3 0 0 52.43 86.49
  Z"
/>
<path fill="#184f27" d="
  M 212.83 56.82
  Q 213.41 71.76 213.25 83.50
  Q 213.20 87.34 217.00 87.41
  Q 222.00 87.50 226.99 87.67
  Q 230.12 87.77 229.45 91.24
  A 0.62 0.62 5.0 0 1 228.84 91.75
  L 176.82 91.69
  A 0.71 0.67 -7.6 0 1 176.15 91.21
  Q 175.69 89.62 176.15 88.03
  A 0.71 0.66 7.6 0 1 176.82 87.56
  L 187.19 87.44
  A 1.35 1.23 21.8 0 0 188.07 87.11
  Q 190.47 84.87 190.00 81.25
  Q 189.79 79.64 190.11 77.88
  Q 190.51 75.64 190.52 74.58
  Q 190.69 54.55 190.09 34.54
  Q 189.92 28.78 189.88 28.46
  Q 189.54 25.57 188.29 22.53
  A 1.26 1.25 78.8 0 0 187.13 21.75
  Q 183.71 21.75 180.52 21.75
  Q 177.96 21.75 177.08 21.24
  Q 175.34 20.24 176.16 17.54
  A 0.68 0.65 8.4 0 1 176.82 17.07
  Q 203.71 17.66 230.61 17.54
  Q 230.69 17.54 242.85 16.97
  Q 249.77 16.65 256.16 17.65
  Q 259.59 18.19 258.51 21.48
  Q 256.83 26.60 257.31 32.78
  A 1.13 1.00 89.5 0 1 256.25 34.00
  L 251.83 33.67
  A 1.35 1.00 84.4 0 1 250.86 32.60
  L 249.37 25.04
  A 0.81 0.64 -0.1 0 0 248.69 24.50
  Q 245.45 24.10 242.23 23.57
  Q 238.72 22.99 235.73 22.96
  Q 225.09 22.87 215.06 23.22
  A 1.78 1.78 -89.1 0 0 213.35 24.88
  Q 212.48 37.36 212.78 49.89
  A 0.89 0.89 89.0 0 0 213.67 50.75
  Q 226.50 50.75 238.00 50.71
  Q 243.10 50.69 242.25 45.49
  Q 241.83 42.96 244.33 42.99
  L 248.18 43.04
  A 0.52 0.51 0.6 0 1 248.69 43.55
  L 248.75 65.00
  A 0.70 0.67 81.5 0 1 248.28 65.66
  Q 244.53 66.82 242.52 63.92
  A 1.56 1.14 -67.2 0 1 242.30 63.00
  Q 242.43 61.14 241.71 59.45
  Q 241.55 59.08 241.54 58.51
  Q 241.51 57.18 239.85 56.72
  Q 238.11 56.24 236.39 56.25
  L 213.32 56.31
  A 0.49 0.49 88.9 0 0 212.83 56.82
  Z"
/>
<path fill="#69724b" d="
  M 490.79 36.75
  Q 490.95 34.93 489.75 33.71
  Q 491.07 31.80 492.06 31.31
  Q 496.21 29.25 497.55 24.93
  A 0.80 0.71 -82.5 0 1 498.19 24.38
  Q 500.79 24.19 500.41 26.39
  Q 500.24 27.37 499.30 28.53
  Q 495.55 33.16 490.79 36.75
  Z"
/>
<path fill="#9d9769" d="
  M 489.75 33.71
  Q 490.95 34.93 490.79 36.75
  Q 490.07 37.56 489.00 37.79
  Q 487.05 36.69 488.50 35.04
  L 489.75 33.71
  Z"
/>
<path fill="#86845b" d="
  M 473.21 65.25
  Q 470.66 66.05 470.71 68.75
  Q 469.41 63.41 468.79 57.94
  Q 468.27 53.38 467.03 49.00
  Q 466.22 46.15 463.93 42.57
  Q 461.94 39.46 460.23 36.19
  A 0.70 0.65 54.7 0 1 460.34 35.39
  Q 461.87 33.92 462.94 35.81
  Q 465.46 40.31 468.53 44.39
  Q 469.43 45.59 469.75 47.23
  L 473.21 65.25
  Z"
/>
<path fill="#86845b" d="
  M 488.50 35.04
  Q 487.05 36.69 489.00 37.79
  Q 488.18 39.02 486.69 39.61
  A 1.48 1.48 -8.5 0 0 485.77 40.85
  Q 485.08 48.93 483.31 53.56
  Q 482.61 55.40 483.25 62.83
  L 480.29 64.25
  Q 480.19 55.46 482.91 47.10
  Q 483.84 44.26 483.45 40.79
  A 2.93 2.66 69.1 0 1 484.45 38.23
  L 488.50 35.04
  Z"
/>
<path fill="#798058" d="
  M 486.29 64.50
  Q 485.51 63.34 484.25 62.71
  Q 488.69 58.50 493.96 55.53
  Q 497.29 53.66 500.99 53.05
  Q 504.70 52.43 508.50 52.42
  Q 511.01 52.42 510.05 53.93
  Q 509.66 54.55 508.86 54.96
  Q 506.37 56.22 503.49 56.00
  Q 502.15 55.90 499.97 56.63
  L 494.55 58.46
  Q 494.07 58.62 493.69 58.90
  L 486.29 64.50
  Z"
/>
<path fill="#9d9769" d="
  M 483.25 62.83
  L 484.25 62.71
  Q 485.51 63.34 486.29 64.50
  Q 480.15 69.64 477.44 77.50
  Q 477.06 74.53 475.47 72.15
  Q 479.06 68.80 480.29 64.25
  L 483.25 62.83
  Z"
/>
<path fill="#b29f6e" d="
  M 473.21 65.25
  Q 473.56 68.90 475.47 72.15
  Q 477.06 74.53 477.44 77.50
  Q 478.18 78.62 477.96 79.75
  Q 474.62 79.06 474.00 76.25
  Q 473.23 72.73 471.29 71.25
  L 470.71 68.75
  Q 470.66 66.05 473.21 65.25
  Z"
/>
<path fill="#8f775b" d="
  M 471.29 71.25
  Q 473.23 72.73 474.00 76.25
  Q 474.62 79.06 477.96 79.75
  Q 477.50 82.23 478.79 84.25
  Q 478.35 84.86 478.79 85.50
  L 479.00 89.29
  Q 476.86 90.70 476.56 93.31
  Q 475.92 98.90 476.46 104.50
  Q 473.89 105.25 474.50 107.50
  Q 476.27 114.00 477.54 107.75
  L 480.96 113.75
  Q 477.09 114.49 478.00 118.52
  A 1.46 1.46 77.9 0 1 476.86 120.28
  Q 474.41 120.76 472.98 119.10
  Q 472.08 118.04 471.60 117.83
  Q 469.88 117.11 469.92 119.68
  A 0.61 0.53 86.8 0 1 469.46 120.28
  Q 467.69 120.52 466.69 119.00
  A 0.99 0.76 68.3 0 0 465.93 118.55
  Q 463.91 118.67 463.94 121.25
  Q 463.99 125.51 461.46 122.50
  Q 462.54 120.56 462.78 118.41
  Q 463.11 115.45 463.38 114.28
  Q 464.42 109.83 463.71 105.25
  Q 464.70 104.39 464.25 103.00
  Q 463.97 102.11 464.71 102.00
  L 465.79 105.91
  A 0.55 0.54 60.2 0 0 466.70 106.17
  Q 468.11 104.76 467.75 102.54
  Q 469.57 100.22 469.93 97.29
  Q 470.04 96.42 470.40 95.83
  Q 470.92 95.01 471.30 94.55
  A 0.89 0.88 42.2 0 0 471.24 93.36
  Q 468.90 91.03 468.57 93.17
  Q 468.33 94.65 467.07 94.63
  A 0.79 0.61 9.3 0 0 466.35 95.02
  L 465.96 96.00
  Q 464.99 95.91 464.79 95.00
  Q 465.03 93.99 464.93 92.98
  Q 464.84 92.05 464.08 91.25
  Q 462.48 89.52 460.50 88.21
  Q 459.76 86.04 460.50 83.96
  L 467.57 89.70
  A 1.37 1.31 29.8 0 0 469.69 89.18
  Q 470.96 85.66 473.75 83.25
  Q 474.05 85.08 473.06 86.56
  Q 471.52 88.88 473.94 89.56
  Q 476.09 90.17 475.65 87.05
  Q 475.46 85.66 475.32 84.27
  Q 475.18 82.87 473.75 83.25
  Q 474.74 79.72 472.94 76.54
  Q 471.54 74.07 471.29 71.25
  Z"
/>
<path fill="#5c5645" d="
  M 460.50 83.96
  Q 459.76 86.04 460.50 88.21
  Q 458.24 88.03 455.94 89.69
  Q 452.76 91.99 450.00 92.50
  Q 448.29 92.82 448.09 91.32
  A 1.04 0.90 -27.8 0 1 448.42 90.47
  Q 450.31 88.68 452.47 87.23
  Q 455.50 85.17 453.93 82.73
  Q 452.43 80.39 452.24 79.83
  Q 451.03 76.37 451.00 75.25
  Q 450.97 74.12 451.43 74.43
  A 1.20 0.58 -89.8 0 1 451.80 75.20
  Q 452.13 77.55 454.31 78.94
  Q 457.12 80.73 460.50 83.96
  Z"
/>
<path fill="#86845b" d="
  M 482.79 87.75
  Q 482.57 86.09 481.50 85.25
  Q 479.96 84.04 478.79 85.50
  Q 478.35 84.86 478.79 84.25
  Q 485.80 83.73 492.58 81.93
  Q 493.40 81.71 493.93 81.77
  Q 495.34 81.92 494.72 83.02
  A 1.59 1.15 -2.3 0 1 493.96 83.62
  L 482.79 87.75
  Z"
/>
<path fill="#ceb080" d="
  M 473.75 83.25
  Q 475.18 82.87 475.32 84.27
  Q 475.46 85.66 475.65 87.05
  Q 476.09 90.17 473.94 89.56
  Q 471.52 88.88 473.06 86.56
  Q 474.05 85.08 473.75 83.25
  Z"
/>
<path fill="#b8a385" d="
  M 482.79 87.75
  L 479.00 89.29
  L 478.79 85.50
  Q 479.96 84.04 481.50 85.25
  Q 482.57 86.09 482.79 87.75
  Z"
/>
<path fill="#64453a" d="
  M 467.75 102.54
  Q 465.45 99.64 465.96 96.00
  L 466.35 95.02
  A 0.79 0.61 9.3 0 1 467.07 94.63
  Q 468.33 94.65 468.57 93.17
  Q 468.90 91.03 471.24 93.36
  A 0.89 0.88 42.2 0 1 471.30 94.55
  Q 470.92 95.01 470.40 95.83
  Q 470.04 96.42 469.93 97.29
  Q 469.57 100.22 467.75 102.54
  Z"
/>
<path fill="#b29f6e" d="
  M 464.79 95.00
  Q 464.99 95.91 465.96 96.00
  Q 465.45 99.64 467.75 102.54
  Q 468.11 104.76 466.70 106.17
  A 0.55 0.54 60.2 0 1 465.79 105.91
  L 464.71 102.00
  L 464.79 95.00
  Z"
/>
<path fill="#856047" d="
  M 56.94 99.13
  Q 59.54 100.86 62.70 100.78
  Q 66.71 100.68 67.27 100.88
  Q 70.20 101.92 70.25 105.71
  L 46.00 105.71
  Q 45.92 104.28 44.21 104.25
  Q 46.14 103.38 48.25 103.55
  Q 51.61 103.82 54.98 103.76
  Q 55.07 103.76 56.03 103.80
  Q 57.90 103.89 56.94 102.06
  Q 55.99 100.28 54.56 100.44
  L 45.31 101.50
  A 0.93 0.80 -78.6 0 0 44.63 102.03
  Q 43.96 103.52 42.25 103.71
  Q 43.21 103.29 43.59 102.47
  A 0.38 0.34 13.4 0 0 43.25 101.98
  Q 41.05 101.84 39.19 100.56
  Q 38.55 100.13 37.29 100.75
  Q 36.82 98.80 38.50 98.93
  Q 39.44 99.00 39.51 98.99
  Q 48.30 98.91 56.94 99.13
  Z"
/>
<path fill="#987454" d="
  M 56.94 99.13
  L 135.71 99.03
  Q 140.56 101.78 136.44 102.26
  Q 136.11 102.30 135.47 102.12
  Q 134.04 101.71 132.63 103.56
  Q 131.97 104.44 133.03 104.16
  Q 135.58 103.49 134.75 105.71
  Q 128.45 106.10 126.50 105.50
  Q 122.63 104.32 118.75 105.50
  Q 116.83 106.09 111.25 105.71
  Q 111.19 103.28 109.35 102.55
  Q 108.34 102.16 106.21 102.81
  Q 102.54 103.93 98.67 103.15
  Q 97.85 102.98 97.33 103.14
  Q 95.64 103.64 98.21 105.04
  Q 98.99 105.46 100.32 105.51
  L 105.75 105.71
  L 83.00 105.71
  Q 82.89 103.58 84.96 103.89
  Q 85.71 104.00 86.05 103.96
  Q 87.54 103.80 86.90 103.10
  Q 86.59 102.75 85.98 102.64
  Q 81.60 101.81 79.41 105.52
  L 70.25 105.71
  Q 70.20 101.92 67.27 100.88
  Q 66.71 100.68 62.70 100.78
  Q 59.54 100.86 56.94 99.13
  Z"
/>
<path fill="#a7865e" d="
  M 135.71 99.03
  L 162.25 99.04
  Q 163.16 100.81 161.29 101.43
  A 0.46 0.40 71.4 0 0 161.06 101.99
  L 162.27 105.73
  L 134.75 105.71
  Q 135.58 103.49 133.03 104.16
  Q 131.97 104.44 132.63 103.56
  Q 134.04 101.71 135.47 102.12
  Q 136.11 102.30 136.44 102.26
  Q 140.56 101.78 135.71 99.03
  Z"
/>
<path fill="#87644e" d="
  M 162.25 99.04
  L 221.96 99.08
  Q 225.72 101.92 229.86 99.20
  Q 231.17 98.82 232.75 99.04
  Q 233.22 101.76 235.28 102.78
  Q 235.71 102.99 238.30 103.07
  Q 240.62 103.13 241.25 105.71
  L 222.09 105.65
  Q 221.25 103.07 218.19 104.44
  Q 217.20 104.88 217.75 105.71
  L 162.27 105.73
  L 161.06 101.99
  A 0.46 0.40 71.4 0 1 161.29 101.43
  Q 163.16 100.81 162.25 99.04
  Z"
/>
<path fill="#b8a385" d="
  M 221.96 99.08
  L 229.86 99.20
  Q 225.72 101.92 221.96 99.08
  Z"
/>
<path fill="#a7865e" d="
  M 232.75 99.04
  L 273.25 99.04
  Q 273.56 104.31 279.00 104.20
  Q 281.04 104.16 280.50 105.71
  L 241.25 105.71
  Q 240.62 103.13 238.30 103.07
  Q 235.71 102.99 235.28 102.78
  Q 233.22 101.76 232.75 99.04
  Z
  M 251.56 101.69
  Q 248.42 100.89 244.05 101.94
  Q 243.49 102.08 243.19 102.41
  Q 242.43 103.23 243.69 103.56
  Q 246.65 104.34 252.19 103.97
  A 0.80 0.71 6.1 0 0 252.89 103.47
  Q 253.32 102.13 251.56 101.69
  Z
  M 266.06 102.19
  Q 261.57 101.10 257.75 102.25
  Q 256.64 102.58 256.83 103.25
  A 0.78 0.60 -7.1 0 0 257.57 103.69
  L 266.19 103.46
  A 0.62 0.51 -0.1 0 0 266.80 102.96
  Q 266.82 102.37 266.06 102.19
  Z"
/>
<path fill="#ceb080" d="
  M 273.25 99.04
  L 277.25 99.04
  Q 281.55 101.64 286.07 102.63
  Q 286.73 103.15 286.71 103.53
  A 0.85 0.39 -3.2 0 1 285.93 103.94
  Q 284.31 104.05 285.00 105.71
  L 280.50 105.71
  Q 281.04 104.16 279.00 104.20
  Q 273.56 104.31 273.25 99.04
  Z"
/>
<path fill="#b29f6e" d="
  M 277.25 99.04
  L 292.29 99.09
  L 286.07 102.63
  Q 281.55 101.64 277.25 99.04
  Z"
/>
<path fill="#856047" d="
  M 292.29 99.09
  L 314.50 99.04
  Q 313.80 99.92 314.25 100.96
  Q 313.30 101.79 312.84 100.13
  Q 308.44 100.27 304.32 101.57
  Q 303.67 101.77 303.35 102.18
  Q 302.40 103.39 304.88 103.14
  Q 305.81 103.05 306.74 102.95
  Q 310.15 102.57 307.25 104.50
  Q 304.99 106.00 302.50 104.75
  Q 298.99 102.98 296.42 105.62
  L 285.00 105.71
  Q 284.31 104.05 285.93 103.94
  A 0.85 0.39 -3.2 0 0 286.71 103.53
  Q 286.73 103.15 286.07 102.63
  L 292.29 99.09
  Z"
/>
<path fill="#b8a385" d="
  M 314.50 99.04
  L 325.75 99.04
  Q 326.41 101.04 328.49 101.57
  Q 329.82 101.92 328.59 102.55
  Q 323.06 105.38 317.81 102.19
  Q 316.82 101.58 314.25 100.96
  Q 313.80 99.92 314.50 99.04
  Z"
/>
<path fill="#856047" d="
  M 325.75 99.04
  L 342.75 99.04
  Q 344.84 101.87 348.00 99.96
  Q 347.82 103.01 351.25 102.04
  Q 349.27 102.27 347.29 102.48
  Q 345.64 102.66 343.36 102.27
  Q 340.56 101.78 336.75 101.75
  Q 334.19 101.73 332.50 102.57
  A 0.67 0.55 -24.3 0 0 332.14 103.31
  Q 332.30 103.70 332.75 103.75
  Q 335.11 104.01 338.26 103.90
  Q 340.82 103.82 343.74 104.01
  Q 348.12 104.29 352.50 103.79
  Q 353.23 105.04 354.75 104.79
  Q 353.26 105.89 351.25 105.71
  L 332.10 105.59
  Q 330.69 102.47 327.50 104.30
  A 0.70 0.55 -26.3 0 0 327.14 105.05
  Q 327.29 105.45 327.75 105.71
  L 309.75 105.71
  Q 309.43 104.46 310.27 103.95
  Q 311.09 103.46 311.14 103.41
  Q 312.27 102.30 312.84 100.13
  Q 313.30 101.79 314.25 100.96
  Q 316.82 101.58 317.81 102.19
  Q 323.06 105.38 328.59 102.55
  Q 329.82 101.92 328.49 101.57
  Q 326.41 101.04 325.75 99.04
  Z"
/>
<path fill="#b8a385" d="
  M 342.75 99.04
  L 347.50 99.04
  Q 348.12 99.29 348.00 99.96
  Q 344.84 101.87 342.75 99.04
  Z"
/>
<path fill="#714f38" d="
  M 347.50 99.04
  L 357.50 99.04
  Q 356.42 99.00 356.35 99.57
  A 0.71 0.45 10.9 0 0 356.93 100.12
  L 360.00 100.79
  Q 364.08 102.04 360.87 104.17
  Q 360.61 104.34 359.95 104.39
  L 354.75 104.79
  Q 353.23 105.04 352.50 103.79
  Q 355.82 101.50 351.25 102.04
  Q 347.82 103.01 348.00 99.96
  Q 348.12 99.29 347.50 99.04
  Z"
/>
<path fill="#b8a385" d="
  M 357.50 99.04
  L 363.25 99.04
  Q 363.39 100.43 361.81 100.06
  Q 360.91 99.86 360.00 100.79
  L 356.93 100.12
  A 0.71 0.45 10.9 0 1 356.35 99.57
  Q 356.42 99.00 357.50 99.04
  Z"
/>
<path fill="#87644e" d="
  M 363.25 99.04
  Q 374.75 98.97 386.25 99.02
  Q 388.13 99.03 388.71 100.75
  L 385.75 101.29
  Q 382.69 100.16 380.00 100.25
  Q 377.40 100.34 376.22 102.54
  A 0.34 0.33 16.0 0 0 376.50 103.03
  L 385.69 103.77
  A 0.58 0.53 89.9 0 1 386.19 104.31
  L 386.25 105.71
  L 351.25 105.71
  Q 353.26 105.89 354.75 104.79
  L 359.95 104.39
  Q 360.61 104.34 360.87 104.17
  Q 364.08 102.04 360.00 100.79
  Q 360.91 99.86 361.81 100.06
  Q 363.39 100.43 363.25 99.04
  Z"
/>
<path fill="#c29d75" d="
  M 312.84 100.13
  Q 312.27 102.30 311.14 103.41
  Q 311.09 103.46 310.27 103.95
  Q 309.43 104.46 309.75 105.71
  L 296.42 105.62
  Q 298.99 102.98 302.50 104.75
  Q 304.99 106.00 307.25 104.50
  Q 310.15 102.57 306.74 102.95
  Q 305.81 103.05 304.88 103.14
  Q 302.40 103.39 303.35 102.18
  Q 303.67 101.77 304.32 101.57
  Q 308.44 100.27 312.84 100.13
  Z"
/>
<path fill="#856047" d="
  M 42.25 103.71
  Q 42.03 103.75 42.00 103.96
  Q 40.18 104.14 38.96 105.50
  Q 36.35 104.04 37.29 100.75
  Q 38.55 100.13 39.19 100.56
  Q 41.05 101.84 43.25 101.98
  A 0.38 0.34 13.4 0 1 43.59 102.47
  Q 43.21 103.29 42.25 103.71
  Z"
/>
<path fill="#a7865e" d="
  M 44.21 104.25
  L 42.00 103.96
  Q 42.03 103.75 42.25 103.71
  Q 43.96 103.52 44.63 102.03
  A 0.93 0.80 -78.6 0 1 45.31 101.50
  L 54.56 100.44
  Q 55.99 100.28 56.94 102.06
  Q 57.90 103.89 56.03 103.80
  Q 55.07 103.76 54.98 103.76
  Q 51.61 103.82 48.25 103.55
  Q 46.14 103.38 44.21 104.25
  Z"
/>
<path fill="#c29d75" d="
  M 385.75 101.29
  Q 386.29 103.78 388.71 103.00
  Q 389.71 106.47 386.25 105.71
  L 386.19 104.31
  A 0.58 0.53 89.9 0 0 385.69 103.77
  L 376.50 103.03
  A 0.34 0.33 16.0 0 1 376.22 102.54
  Q 377.40 100.34 380.00 100.25
  Q 382.69 100.16 385.75 101.29
  Z"
/>
<path fill="#e7cda9" d="
  M 388.71 100.75
  L 388.71 103.00
  Q 386.29 103.78 385.75 101.29
  L 388.71 100.75
  Z"
/>
<path fill="#ceb080" d="
  M 251.56 101.69
  Q 253.32 102.13 252.89 103.47
  A 0.80 0.71 6.1 0 1 252.19 103.97
  Q 246.65 104.34 243.69 103.56
  Q 242.43 103.23 243.19 102.41
  Q 243.49 102.08 244.05 101.94
  Q 248.42 100.89 251.56 101.69
  Z"
/>
<path fill="#ceb080" d="
  M 266.06 102.19
  Q 266.82 102.37 266.80 102.96
  A 0.62 0.51 -0.1 0 1 266.19 103.46
  L 257.57 103.69
  A 0.78 0.60 -7.1 0 1 256.83 103.25
  Q 256.64 102.58 257.75 102.25
  Q 261.57 101.10 266.06 102.19
  Z"
/>
<path fill="#c29d75" d="
  M 351.25 102.04
  Q 355.82 101.50 352.50 103.79
  Q 348.12 104.29 343.74 104.01
  Q 340.82 103.82 338.26 103.90
  Q 335.11 104.01 332.75 103.75
  Q 332.30 103.70 332.14 103.31
  A 0.67 0.55 -24.3 0 1 332.50 102.57
  Q 334.19 101.73 336.75 101.75
  Q 340.56 101.78 343.36 102.27
  Q 345.64 102.66 347.29 102.48
  Q 349.27 102.27 351.25 102.04
  Z"
/>
<path fill="#714f38" d="
  M 111.25 105.71
  L 105.75 105.71
  L 100.32 105.51
  Q 98.99 105.46 98.21 105.04
  Q 95.64 103.64 97.33 103.14
  Q 97.85 102.98 98.67 103.15
  Q 102.54 103.93 106.21 102.81
  Q 108.34 102.16 109.35 102.55
  Q 111.19 103.28 111.25 105.71
  Z"
/>
<path fill="#b8a385" d="
  M 83.00 105.71
  L 79.41 105.52
  Q 81.60 101.81 85.98 102.64
  Q 86.59 102.75 86.90 103.10
  Q 87.54 103.80 86.05 103.96
  Q 85.71 104.00 84.96 103.89
  Q 82.89 103.58 83.00 105.71
  Z"
/>
<path fill="#b8a385" d="
  M 332.10 105.59
  L 327.75 105.71
  Q 327.29 105.45 327.14 105.05
  A 0.70 0.55 -26.3 0 1 327.50 104.30
  Q 330.69 102.47 332.10 105.59
  Z"
/>
<path fill="#b8a385" d="
  M 42.00 103.96
  L 44.21 104.25
  Q 45.92 104.28 46.00 105.71
  L 38.96 105.50
  Q 40.18 104.14 42.00 103.96
  Z"
/>
<path fill="#b8a385" d="
  M 222.09 105.65
  L 217.75 105.71
  Q 217.20 104.88 218.19 104.44
  Q 221.25 103.07 222.09 105.65
  Z"
/>
<path fill="#b8a385" d="
  M 476.46 104.50
  Q 477.02 105.00 477.04 105.75
  L 477.54 107.75
  Q 476.27 114.00 474.50 107.50
  Q 473.89 105.25 476.46 104.50
  Z"
/>
<path fill="#806649" d="
  M 480.96 113.75
  L 486.00 118.54
  Q 486.60 119.26 486.23 119.67
  A 1.59 0.72 -36.4 0 0 485.80 120.44
  Q 485.62 121.82 483.54 121.09
  A 1.23 1.18 -77.9 0 0 481.97 122.16
  L 481.50 127.21
  Q 478.92 127.03 476.43 127.51
  Q 473.96 128.00 472.51 128.00
  Q 471.17 128.00 469.83 128.00
  Q 468.56 128.00 467.20 128.27
  Q 457.58 130.20 447.75 129.71
  Q 448.49 127.52 446.75 126.71
  Q 450.70 126.22 454.63 125.66
  Q 454.72 125.65 456.89 125.53
  Q 459.88 125.37 461.46 122.50
  Q 463.99 125.51 463.94 121.25
  Q 463.91 118.67 465.93 118.55
  A 0.99 0.76 68.3 0 1 466.69 119.00
  Q 467.69 120.52 469.46 120.28
  A 0.61 0.53 86.8 0 0 469.92 119.68
  Q 469.88 117.11 471.60 117.83
  Q 472.08 118.04 472.98 119.10
  Q 474.41 120.76 476.86 120.28
  A 1.46 1.46 77.9 0 0 478.00 118.52
  Q 477.09 114.49 480.96 113.75
  Z"
/>
<path fill="#185128" d="
  M 106.44 124.86
  A 7.69 7.69 0.0 0 1 98.75 132.55
  A 7.69 7.69 0.0 0 1 91.06 124.86
  A 7.69 7.69 0.0 0 1 98.75 117.17
  A 7.69 7.69 0.0 0 1 106.44 124.86
  Z
  M 98.7229 129.3598
  A 4.50 3.32 90.6 0 0 102.0898 124.8948
  A 4.50 3.32 90.6 0 0 98.8171 120.3602
  A 4.50 3.32 90.6 0 0 95.4502 124.8252
  A 4.50 3.32 90.6 0 0 98.7229 129.3598
  Z"
/>
<path fill="#185128" d="
  M 183.43 124.87
  A 7.69 7.69 0.0 0 1 175.74 132.56
  A 7.69 7.69 0.0 0 1 168.05 124.87
  A 7.69 7.69 0.0 0 1 175.74 117.18
  A 7.69 7.69 0.0 0 1 183.43 124.87
  Z
  M 175.7231 129.3498
  A 4.48 3.32 90.6 0 0 179.0898 124.9048
  A 4.48 3.32 90.6 0 0 175.8169 120.3902
  A 4.48 3.32 90.6 0 0 172.4502 124.8352
  A 4.48 3.32 90.6 0 0 175.7231 129.3498
  Z"
/>
<path fill="#185128" d="
  M 214.40 129.53
  Q 218.20 129.73 216.32 127.57
  Q 215.74 126.90 214.40 126.40
  Q 211.77 125.42 210.81 123.44
  Q 209.62 120.96 211.19 119.16
  Q 212.31 117.86 214.56 117.42
  Q 217.10 116.93 219.69 117.49
  A 0.85 0.85 1.1 0 1 220.35 118.17
  Q 220.98 121.68 218.16 120.34
  Q 216.64 119.62 215.23 120.53
  Q 214.10 121.25 215.01 122.21
  Q 215.38 122.61 216.25 122.95
  Q 219.08 124.06 219.69 124.81
  Q 223.50 129.58 217.94 132.19
  Q 215.76 133.21 211.48 132.13
  A 0.96 0.91 -1.4 0 1 210.83 131.54
  Q 209.37 127.37 212.38 128.90
  Q 213.54 129.49 214.40 129.53
  Z"
/>
<path fill="#185128" d="
  M 343.44 124.86
  A 7.69 7.69 0.0 0 1 335.75 132.55
  A 7.69 7.69 0.0 0 1 328.06 124.86
  A 7.69 7.69 0.0 0 1 335.75 117.17
  A 7.69 7.69 0.0 0 1 343.44 124.86
  Z
  M 335.7231 129.3498
  A 4.48 3.32 90.6 0 0 339.0898 124.9048
  A 4.48 3.32 90.6 0 0 335.8169 120.3902
  A 4.48 3.32 90.6 0 0 332.4502 124.8352
  A 4.48 3.32 90.6 0 0 335.7231 129.3498
  Z"
/>
<path fill="#185128" d="
  M 44.30 124.57
  Q 44.23 127.53 44.49 130.48
  Q 44.71 132.80 41.21 132.01
  A 0.90 0.89 -84.1 0 1 40.50 131.13
  L 40.50 118.51
  A 0.84 0.77 78.4 0 1 40.94 117.77
  Q 42.71 116.92 44.21 117.66
  Q 45.15 118.12 46.24 119.85
  Q 48.01 122.69 49.75 125.29
  Q 50.64 126.62 50.58 125.02
  Q 50.48 122.63 50.49 120.43
  Q 50.50 118.17 50.54 118.09
  Q 51.06 117.13 53.73 117.81
  A 0.68 0.64 8.7 0 1 54.23 118.45
  L 54.09 131.56
  A 0.60 0.54 89.6 0 1 53.57 132.15
  L 50.56 132.24
  A 0.93 0.72 72.2 0 1 49.83 131.74
  Q 47.68 127.77 44.66 124.44
  Q 44.31 124.06 44.30 124.57
  Z"
/>
<path fill="#185128" d="
  M 65.24 129.11
  Q 64.84 128.98 64.42 128.97
  Q 63.90 128.97 63.60 128.91
  Q 60.67 128.37 60.46 131.18
  A 0.97 0.79 82.6 0 1 60.00 131.92
  Q 58.33 132.69 56.54 132.12
  A 0.52 0.52 19.0 0 1 56.21 131.46
  L 60.69 118.94
  Q 60.96 118.18 63.50 117.50
  Q 65.82 116.88 66.34 118.82
  Q 66.58 119.73 66.60 119.79
  Q 68.65 125.64 70.77 131.47
  A 0.51 0.50 70.3 0 1 70.47 132.12
  Q 66.50 133.52 65.77 129.80
  A 0.96 0.73 89.8 0 0 65.24 129.11
  Z
  M 62.38 125.72
  A 0.50 0.50 10.2 0 0 62.78 126.30
  Q 65.10 126.74 64.48 124.97
  Q 64.07 123.80 64.01 123.61
  Q 63.29 121.16 62.38 125.72
  Z"
/>
<path fill="#185128" d="
  M 79.30 121.06
  L 79.25 131.25
  A 0.81 0.78 84.8 0 1 78.61 132.04
  Q 76.79 132.39 75.78 132.12
  A 0.72 0.65 -83.7 0 1 75.30 131.45
  Q 75.21 127.02 75.24 122.59
  Q 75.25 120.99 75.22 120.93
  Q 74.87 120.22 72.99 120.69
  A 1.71 1.70 -18.6 0 1 71.00 119.71
  Q 69.93 117.21 72.59 117.35
  Q 74.82 117.46 74.93 117.46
  Q 78.72 117.37 82.50 117.70
  A 0.68 0.64 -1.5 0 1 83.10 118.24
  Q 83.60 121.36 79.80 120.66
  A 0.42 0.41 5.3 0 0 79.30 121.06
  Z"
/>
<path fill="#185128" d="
  M 90.31 130.11
  Q 91.46 132.26 88.75 132.28
  Q 86.78 132.29 84.82 132.21
  A 0.77 0.70 -6.9 0 1 84.13 131.72
  Q 83.67 130.28 84.80 129.24
  A 1.21 0.94 -25.4 0 0 85.21 128.43
  L 85.20 121.32
  A 1.15 0.81 25.8 0 0 84.77 120.55
  Q 83.82 119.79 83.98 118.06
  A 0.62 0.60 -86.4 0 1 84.59 117.51
  L 89.70 117.54
  A 0.78 0.76 -10.4 0 1 90.40 118.01
  Q 90.97 119.48 89.75 120.32
  A 1.01 0.83 -19.1 0 0 89.30 121.06
  Q 89.20 124.78 89.16 128.50
  Q 89.15 129.16 89.60 129.48
  Q 90.20 129.91 90.31 130.11
  Z"
/>
<path fill="#185128" d="
  M 117.44 125.03
  Q 118.58 126.83 118.56 124.72
  L 118.51 118.05
  A 0.52 0.51 90.0 0 1 119.03 117.52
  L 121.69 117.53
  A 0.53 0.51 90.0 0 1 122.20 118.06
  L 122.20 131.43
  A 0.69 0.67 82.2 0 1 121.72 132.09
  Q 120.11 132.53 118.48 132.14
  A 1.39 1.19 77.4 0 1 117.73 131.58
  L 113.05 124.42
  Q 112.25 123.19 112.25 124.67
  Q 112.25 126.36 112.25 128.33
  Q 112.25 128.43 112.38 130.16
  Q 112.62 133.23 109.16 132.21
  A 0.68 0.66 8.5 0 1 108.66 131.56
  L 108.66 118.19
  A 0.59 0.54 89.0 0 1 109.18 117.60
  L 112.19 117.51
  A 1.00 0.82 69.5 0 1 112.98 117.97
  L 117.44 125.03
  Z"
/>
<path fill="#185128" d="
  M 132.94 129.03
  L 130.10 129.03
  A 1.21 1.15 -78.9 0 0 129.03 129.79
  Q 127.64 133.31 124.52 132.13
  A 0.53 0.53 -70.2 0 1 124.21 131.46
  L 128.69 118.94
  Q 128.93 118.25 131.50 117.50
  Q 133.73 116.85 134.35 118.72
  Q 136.48 125.13 138.76 131.53
  A 0.48 0.48 -16.1 0 1 138.41 132.16
  Q 134.22 133.08 133.52 129.55
  A 0.66 0.58 83.3 0 0 132.94 129.03
  Z
  M 130.35 125.89
  A 0.33 0.33 10.6 0 0 130.61 126.27
  Q 133.10 126.74 132.47 124.94
  Q 132.08 123.84 132.02 123.65
  Q 131.30 121.14 130.35 125.89
  Z"
/>
<path fill="#185128" d="
  M 145.06 129.20
  L 148.94 129.30
  A 0.78 0.71 -8.7 0 1 149.64 129.76
  Q 150.01 130.75 149.64 131.73
  A 0.74 0.71 9.5 0 1 148.95 132.20
  L 141.38 132.25
  A 0.87 0.87 -0.3 0 1 140.50 131.38
  L 140.55 118.32
  A 0.73 0.63 84.5 0 1 141.03 117.64
  Q 142.07 117.37 144.00 117.74
  A 0.63 0.63 -84.5 0 1 144.51 118.36
  L 144.55 128.68
  A 0.52 0.52 0.6 0 0 145.06 129.20
  Z"
/>
<path fill="#185128" d="
  M 161.83 121.35
  Q 160.86 124.63 165.04 123.99
  Q 167.63 123.60 166.64 125.99
  A 0.76 0.74 10.9 0 1 165.94 126.45
  L 162.69 126.45
  A 0.55 0.51 1.1 0 0 162.14 126.94
  L 161.93 131.44
  A 0.74 0.63 84.2 0 1 161.47 132.10
  Q 160.01 132.55 158.54 132.11
  A 0.69 0.69 8.9 0 1 158.05 131.44
  L 158.16 118.19
  A 0.56 0.53 -90.0 0 1 158.68 117.64
  L 165.97 117.54
  A 1.07 1.02 84.3 0 1 166.99 118.42
  Q 167.46 121.08 163.66 120.27
  A 1.56 1.56 14.4 0 0 161.83 121.35
  Z"
/>
<path fill="#185128" d="
  M 189.55 127.32
  L 189.45 131.44
  A 0.75 0.63 84.6 0 1 188.97 132.13
  Q 188.04 132.36 186.20 131.99
  A 0.89 0.88 6.1 0 1 185.50 131.13
  L 185.50 118.17
  A 0.67 0.67 -0.4 0 1 186.16 117.50
  Q 188.68 117.47 191.16 117.51
  Q 193.94 117.56 195.07 118.28
  Q 197.12 119.59 196.44 122.69
  Q 196.13 124.10 194.41 125.45
  A 0.53 0.47 55.4 0 0 194.33 126.12
  L 197.80 131.54
  A 0.41 0.38 -21.0 0 1 197.51 132.12
  Q 195.98 132.46 194.43 132.17
  A 1.33 1.24 75.6 0 1 193.63 131.66
  Q 192.45 130.04 190.69 127.06
  Q 190.47 126.69 190.05 126.70
  A 0.63 0.51 -89.9 0 0 189.55 127.32
  Z
  M 190.17 120.38
  Q 189.20 120.83 189.79 123.63
  A 0.59 0.58 68.3 0 0 190.67 124.01
  Q 193.11 122.50 192.19 121.21
  Q 191.24 119.88 190.17 120.38
  Z"
/>
<path fill="#185128" d="
  M 204.31 129.21
  L 208.24 129.24
  A 0.98 0.95 -5.8 0 1 209.19 129.99
  Q 209.74 132.50 207.77 132.33
  Q 206.82 132.25 206.72 132.25
  Q 204.13 132.25 200.53 132.25
  A 0.77 0.76 -0.0 0 1 199.76 131.49
  L 199.80 118.06
  A 0.52 0.50 -89.4 0 1 200.30 117.55
  L 208.18 117.54
  A 0.57 0.47 2.2 0 1 208.76 118.05
  L 208.60 119.96
  A 0.68 0.54 1.2 0 1 207.94 120.46
  L 204.49 120.51
  A 0.72 0.67 7.9 0 0 203.83 120.97
  Q 202.87 123.96 206.48 123.16
  Q 209.19 122.56 208.49 125.28
  A 1.44 1.44 -72.0 0 1 206.74 126.31
  Q 202.93 125.32 203.69 128.70
  A 0.65 0.63 83.8 0 0 204.31 129.21
  Z"
/>
<path fill="#185128" d="
  M 225.19 120.53
  L 222.80 120.52
  A 1.05 0.98 -5.5 0 1 221.80 119.75
  Q 221.26 117.27 223.19 117.41
  Q 224.26 117.50 224.32 117.50
  Q 228.75 117.46 233.18 117.55
  A 0.78 0.72 -8.7 0 1 233.88 118.02
  Q 234.98 120.90 231.30 120.44
  A 1.16 1.16 -86.5 0 0 230.00 121.59
  L 230.00 131.25
  A 0.82 0.82 83.3 0 1 229.37 132.05
  Q 225.24 133.01 226.00 129.75
  Q 226.50 127.59 225.75 121.06
  A 0.61 0.56 85.9 0 0 225.19 120.53
  Z"
/>
<path fill="#185128" d="
  M 244.83 125.73
  L 248.43 131.51
  A 0.38 0.38 66.6 0 1 248.21 132.08
  Q 246.58 132.50 244.91 132.17
  A 1.36 1.16 74.0 0 1 244.14 131.66
  Q 242.54 129.44 241.11 127.11
  Q 240.68 126.39 240.19 126.93
  A 2.00 1.99 -30.0 0 0 239.71 128.72
  Q 240.66 132.91 236.80 132.03
  A 0.99 0.95 6.6 0 1 236.02 131.08
  L 236.16 118.18
  A 0.57 0.55 -1.7 0 1 236.69 117.64
  Q 238.92 117.46 242.75 117.50
  Q 245.93 117.53 246.77 120.32
  Q 247.75 123.60 245.01 125.09
  A 0.47 0.45 -30.5 0 0 244.83 125.73
  Z
  M 241.51 120.24
  A 0.83 0.83 22.2 0 0 240.25 120.77
  Q 239.45 124.69 241.60 123.53
  Q 244.31 122.06 241.51 120.24
  Z"
/>
<path fill="#185128" d="
  M 255.14 122.06
  Q 256.40 120.51 256.94 118.55
  A 1.13 0.95 88.7 0 1 257.51 117.84
  Q 259.20 117.08 261.03 117.60
  A 0.44 0.43 20.9 0 1 261.31 118.21
  L 257.32 125.90
  Q 257.06 126.40 257.05 126.81
  L 256.95 131.43
  A 0.70 0.47 -88.5 0 1 256.46 132.11
  L 253.28 132.04
  A 0.81 0.70 -84.7 0 1 252.62 131.12
  Q 253.09 127.92 252.14 125.83
  Q 250.41 122.02 248.54 118.26
  A 0.41 0.40 69.7 0 1 248.80 117.68
  Q 250.54 117.24 252.32 117.58
  A 0.98 0.96 -5.6 0 1 253.03 118.15
  L 254.64 121.97
  A 0.30 0.29 54.1 0 0 255.14 122.06
  Z"
/>
<path fill="#185128" d="
  M 273.38 117.94
  Q 275.33 116.95 277.47 117.64
  A 1.06 0.95 87.8 0 1 278.10 118.29
  Q 281.50 128.20 282.50 130.75
  Q 283.18 132.50 281.50 132.37
  Q 281.30 132.36 279.99 132.36
  Q 278.39 132.36 277.96 130.13
  A 1.11 1.10 -88.8 0 0 277.15 129.28
  Q 272.77 128.21 272.46 131.18
  A 0.96 0.76 83.4 0 1 272.00 131.92
  Q 270.33 132.69 268.54 132.12
  A 0.52 0.50 19.1 0 1 268.21 131.47
  L 272.76 118.65
  A 1.28 1.27 86.4 0 1 273.38 117.94
  Z
  M 274.38 125.72
  A 0.50 0.50 -79.5 0 0 274.78 126.30
  Q 277.10 126.74 276.48 124.97
  Q 276.07 123.80 276.01 123.61
  Q 275.29 121.16 274.38 125.72
  Z"
/>
<path fill="#185128" d="
  M 290.56 129.44
  Q 293.00 130.18 293.00 126.25
  L 293.00 118.63
  A 0.87 0.86 -6.3 0 1 293.68 117.79
  Q 296.41 117.19 296.94 118.28
  Q 297.01 118.42 297.00 120.75
  Q 296.98 123.87 296.90 127.00
  Q 296.83 129.51 295.25 130.97
  Q 293.99 132.15 291.59 132.51
  Q 286.39 133.31 284.82 128.91
  Q 284.25 127.30 284.25 123.53
  Q 284.25 120.83 284.25 118.06
  A 0.53 0.51 -89.5 0 1 284.77 117.53
  L 287.68 117.53
  A 0.54 0.52 89.4 0 1 288.20 118.06
  Q 288.28 121.90 288.07 125.74
  Q 287.92 128.64 290.56 129.44
  Z"
/>
<path fill="#185128" d="
  M 302.20 120.53
  L 299.38 120.51
  A 0.81 0.78 -5.7 0 1 298.59 119.89
  Q 298.01 117.25 300.00 117.42
  Q 300.92 117.50 301.00 117.50
  Q 305.50 117.50 309.99 117.50
  A 0.73 0.67 -8.2 0 1 310.67 117.97
  Q 311.71 121.23 307.77 120.46
  A 0.87 0.85 -84.2 0 0 306.75 121.31
  L 306.70 131.44
  A 0.70 0.63 83.7 0 1 306.22 132.11
  Q 305.18 132.38 303.25 132.01
  A 0.63 0.63 -84.5 0 1 302.74 131.39
  L 302.70 121.07
  A 0.54 0.50 90.0 0 0 302.20 120.53
  Z"
/>
<path fill="#185128" d="
  M 316.80 126.81
  L 316.70 131.43
  A 0.71 0.65 83.5 0 1 316.22 132.09
  Q 314.73 132.53 313.23 132.14
  A 0.66 0.63 -82.9 0 1 312.75 131.49
  L 312.80 118.31
  A 0.72 0.63 84.3 0 1 313.28 117.64
  Q 314.31 117.37 316.24 117.74
  A 0.63 0.62 5.7 0 1 316.75 118.35
  L 316.75 122.50
  A 0.75 0.75 0.0 0 0 317.50 123.25
  L 321.48 123.25
  A 0.52 0.52 90.0 0 0 322.00 122.73
  Q 322.00 121.00 321.80 119.53
  Q 321.44 116.94 325.35 117.79
  A 0.83 0.80 7.1 0 1 325.99 118.59
  L 325.95 131.44
  A 0.75 0.63 84.6 0 1 325.47 132.13
  Q 324.54 132.36 322.70 131.99
  A 0.89 0.88 6.1 0 1 322.00 131.13
  L 322.00 126.91
  A 0.64 0.62 89.6 0 0 321.37 126.27
  L 317.31 126.29
  A 0.53 0.51 -89.4 0 0 316.80 126.81
  Z"
/>
<path fill="#185128" d="
  M 377.75 117.54
  Q 377.58 118.05 377.45 118.13
  Q 377.59 121.17 374.51 120.44
  A 1.04 1.03 -83.3 0 0 373.25 121.45
  L 373.20 131.43
  A 0.70 0.46 -88.7 0 1 372.72 132.13
  L 369.93 131.98
  A 0.86 0.73 -88.6 0 1 369.24 131.13
  L 369.20 121.06
  A 0.52 0.51 0.6 0 0 368.69 120.55
  L 364.06 120.41
  A 0.55 0.54 -89.0 0 0 363.50 120.96
  Q 363.50 124.50 363.50 128.00
  Q 363.50 129.01 363.98 129.37
  A 1.19 0.15 35.7 0 1 364.67 130.01
  Q 365.08 130.98 364.55 131.85
  A 1.00 0.79 12.3 0 1 363.75 132.24
  L 354.74 132.25
  A 1.71 1.66 73.7 0 1 353.31 131.44
  L 350.84 127.42
  Q 349.49 125.21 349.50 127.77
  L 349.52 131.08
  A 0.89 0.87 83.7 0 1 348.83 131.96
  Q 346.10 132.56 345.56 131.47
  Q 345.50 131.35 345.50 129.01
  Q 345.50 123.62 345.50 118.16
  A 0.66 0.66 -0.2 0 1 346.16 117.50
  Q 348.75 117.50 350.73 117.30
  Q 353.08 117.07 354.79 118.17
  Q 356.60 119.35 356.64 121.43
  Q 356.68 123.79 354.30 125.32
  A 0.52 0.47 56.6 0 0 354.19 126.02
  L 357.39 130.63
  A 0.77 0.31 59.9 0 0 357.91 131.03
  Q 358.04 131.02 358.13 130.94
  A 0.58 0.28 76.8 0 0 358.22 130.54
  Q 358.16 129.71 358.83 129.43
  A 0.82 0.59 -14.5 0 0 359.35 128.81
  L 359.46 121.06
  A 0.94 0.70 19.7 0 0 358.99 120.35
  Q 357.67 119.57 358.34 118.01
  A 0.82 0.73 10.2 0 1 359.07 117.56
  L 377.75 117.54
  Z
  M 349.66 123.78
  A 0.43 0.42 -19.0 0 0 350.25 124.06
  Q 353.29 122.71 352.11 121.16
  Q 351.07 119.77 349.96 120.54
  Q 348.99 121.21 349.66 123.78
  Z"
/>
<path fill="#185128" d="
  M 377.75 117.54
  Q 382.63 116.30 383.42 120.66
  Q 383.55 121.43 383.75 121.79
  Q 384.47 123.13 385.07 121.54
  Q 385.19 121.24 385.33 120.44
  Q 386.07 116.44 390.28 117.61
  A 0.43 0.42 -70.1 0 1 390.55 118.20
  Q 389.43 120.71 388.20 123.17
  Q 388.19 123.20 387.03 125.13
  Q 385.70 127.37 386.25 129.75
  Q 387.01 133.01 382.59 131.98
  A 0.82 0.82 10.6 0 1 381.96 131.06
  Q 382.36 128.18 381.41 125.82
  Q 379.80 121.80 377.45 118.13
  Q 377.58 118.05 377.75 117.54
  Z"
/>
<path fill="#64453a" d="
  M 486.00 118.54
  L 488.54 120.75
  Q 488.22 122.92 486.78 124.48
  Q 486.15 125.16 486.04 125.70
  Q 485.89 126.44 486.00 127.21
  L 481.50 127.21
  L 481.97 122.16
  A 1.23 1.18 -77.9 0 1 483.54 121.09
  Q 485.62 121.82 485.80 120.44
  A 1.59 0.72 -36.4 0 1 486.23 119.67
  Q 486.60 119.26 486.00 118.54
  Z"
/>
<path fill="#876f57" d="
  M 488.54 120.75
  Q 489.89 121.45 492.31 123.19
  Q 495.61 125.55 500.00 125.00
  Q 501.71 124.78 508.50 126.29
  Q 510.17 127.45 509.50 129.71
  Q 505.32 130.04 501.35 129.07
  Q 495.30 127.58 494.53 127.50
  Q 490.29 127.02 486.00 127.21
  Q 485.89 126.44 486.04 125.70
  Q 486.15 125.16 486.78 124.48
  Q 488.22 122.92 488.54 120.75
  Z"
/>
<path fill="#5c5645" d="
  M 508.50 126.29
  L 522.58 128.69
  Q 524.00 128.93 522.98 130.03
  Q 521.71 131.37 519.76 130.96
  Q 514.69 129.88 509.50 129.71
  Q 510.17 127.45 508.50 126.29
  Z"
/>
<path fill="#8f775b" d="
  M 446.75 126.71
  Q 448.49 127.52 447.75 129.71
  Q 431.61 130.09 415.50 129.25
  Q 413.37 129.14 415.31 127.81
  Q 417.21 126.51 419.29 126.83
  Q 422.18 127.28 422.28 127.28
  Q 434.53 127.49 446.75 126.71
  Z"
/>
</svg>
